<svg xmlns="http://www.w3.org/2000/svg" width="16" height="19" viewBox="0 0 16 19">
  <g id="Vector_Smart_Object" data-name="Vector Smart Object" transform="translate(-1159 -962)">
    <g id="Vector_Smart_Object-2" data-name="Vector Smart Object" transform="translate(1149.139 957.37)">
      <g id="Group_1" data-name="Group 1">
        <path id="Path_1" data-name="Path 1" d="M23.225,14.734a4.31,4.31,0,0,1,2.128-3.623,4.633,4.633,0,0,0-3.6-1.883c-1.516-.154-2.987.877-3.76.877-.788,0-1.977-.862-3.259-.836a4.824,4.824,0,0,0-4.039,2.38c-1.747,2.922-.444,7.215,1.23,9.577.837,1.157,1.815,2.448,3.1,2.4,1.253-.049,1.721-.772,3.232-.772s1.937.772,3.243.743c1.344-.02,2.191-1.162,3-2.329a9.413,9.413,0,0,0,1.371-2.7A4.2,4.2,0,0,1,23.225,14.734Z" fill="#fff"/>
        <path id="Path_2" data-name="Path 2" d="M20.758,7.676A4.155,4.155,0,0,0,21.765,4.63a4.535,4.535,0,0,0-2.9,1.448,3.96,3.96,0,0,0-1.033,2.933A3.753,3.753,0,0,0,20.758,7.676Z" fill="#fff"/>
      </g>
    </g>
    <path id="Color_Overlay" data-name="Color Overlay" d="M1161.058,978.6c-1.673-2.362-2.976-6.656-1.229-9.577a4.826,4.826,0,0,1,4.039-2.38c1.283-.025,2.471.837,3.26.837.772,0,2.243-1.031,3.759-.877a4.63,4.63,0,0,1,3.6,1.883,4.308,4.308,0,0,0-2.129,3.622,4.2,4.2,0,0,0,2.636,3.839,9.4,9.4,0,0,1-1.371,2.7c-.808,1.166-1.654,2.309-3,2.328-1.306.03-1.745-.742-3.244-.742s-1.979.723-3.232.772h-.065C1162.841,981,1161.882,979.734,1161.058,978.6Zm5.915-12.216a3.964,3.964,0,0,1,1.033-2.933,4.534,4.534,0,0,1,2.9-1.447,4.154,4.154,0,0,1-1.007,3.045,3.825,3.825,0,0,1-2.731,1.343C1167.1,966.388,1167.037,966.385,1166.973,966.38Z" fill="#a4a4a4"/>
  </g>
</svg>
